<?xml version="1.0" encoding="utf-8"?>
<!-- Generator: Adobe Illustrator 15.0.1, SVG Export Plug-In . SVG Version: 6.00 Build 0)  -->
<!DOCTYPE svg PUBLIC "-//W3C//DTD SVG 1.1//EN" "http://www.w3.org/Graphics/SVG/1.1/DTD/svg11.dtd">
<svg version="1.1" id="Layer_1" xmlns="http://www.w3.org/2000/svg" xmlns:xlink="http://www.w3.org/1999/xlink" x="0px" y="0px"
	 width="18.576px" height="15.198px" viewBox="0 0 18.576 15.198" enable-background="new 0 0 18.576 15.198" xml:space="preserve">
<g>
	<path fill="#E33026" d="M5.428,5.036c0.499,0,0.869,0.222,1.109,0.666l0.028-0.027C6.658,5.47,6.81,5.323,7.023,5.23
		c0.212-0.092,0.42-0.139,0.624-0.139s0.37,0.051,0.499,0.153c0.13,0.102,0.157,0.245,0.083,0.43C8.137,5.877,8.002,6.219,7.827,6.7
		C7.651,7.181,7.466,7.699,7.272,8.253S6.898,9.345,6.731,9.862C6.565,10.38,6.445,10.759,6.371,11
		c-0.074,0.241-0.144,0.468-0.208,0.68c-0.065,0.213-0.107,0.393-0.125,0.541c-0.019,0.148,0.004,0.268,0.069,0.36
		c0.065,0.093,0.181,0.139,0.347,0.139c0.352,0,0.753-0.222,1.207-0.666c0.453-0.444,0.864-0.989,1.234-1.637
		c0.203-0.314,0.375-0.439,0.513-0.375c0.139,0.065,0.134,0.264-0.014,0.597c-0.167,0.37-0.417,0.763-0.75,1.179
		c-0.333,0.416-0.698,0.8-1.096,1.151c-0.398,0.351-0.814,0.638-1.248,0.86c-0.435,0.222-0.828,0.333-1.179,0.333
		c-0.462,0-0.749-0.152-0.859-0.458c-0.111-0.305-0.13-0.67-0.056-1.096c-0.481,0.5-0.961,0.892-1.442,1.179
		c-0.481,0.287-0.934,0.43-1.359,0.43c-0.388,0-0.693-0.125-0.916-0.375c-0.222-0.25-0.37-0.583-0.443-0.999
		c-0.074-0.416-0.06-0.901,0.042-1.457c0.102-0.555,0.291-1.146,0.568-1.775s0.61-1.221,0.999-1.775
		C2.043,7.283,2.455,6.797,2.89,6.381c0.434-0.416,0.869-0.744,1.304-0.984C4.627,5.156,5.04,5.036,5.428,5.036z M4.651,11.167
		c0.314-0.888,0.61-1.757,0.887-2.608C5.816,7.708,6.056,7.005,6.26,6.45C6.112,6.007,5.844,5.767,5.456,5.729
		c-0.259,0-0.537,0.088-0.833,0.264c-0.295,0.175-0.592,0.416-0.887,0.72C3.44,7.019,3.163,7.38,2.904,7.796
		C2.645,8.212,2.423,8.661,2.238,9.141c-0.388,0.961-0.541,1.785-0.458,2.468c0.083,0.685,0.375,1.036,0.875,1.055
		c0.277,0.018,0.578-0.079,0.901-0.291s0.643-0.504,0.957-0.874L4.651,11.167z"/>
	<path fill="#E33026" d="M13.944,0.487c-0.111,0.333-0.269,0.795-0.472,1.387c-0.204,0.592-0.43,1.253-0.68,1.983
		c-0.25,0.731-0.513,1.508-0.791,2.331c-0.277,0.823-0.555,1.632-0.832,2.427c0.906-1.424,1.742-2.422,2.51-2.996
		c0.767-0.573,1.428-0.674,1.983-0.305c0.407,0.277,0.61,0.643,0.61,1.096c0,0.454-0.176,0.929-0.527,1.429s-0.865,0.976-1.54,1.428
		c-0.675,0.454-1.466,0.809-2.372,1.069c0.48,0.166,0.813,0.383,0.999,0.651c0.185,0.268,0.319,0.532,0.402,0.791
		c0.083,0.259,0.162,0.481,0.236,0.666c0.074,0.185,0.25,0.277,0.527,0.277c0.351,0,0.758-0.222,1.22-0.666
		c0.462-0.444,0.878-0.989,1.249-1.637c0.185-0.314,0.347-0.439,0.485-0.375c0.139,0.065,0.134,0.264-0.014,0.597
		c-0.167,0.37-0.412,0.763-0.735,1.179c-0.324,0.416-0.688,0.8-1.096,1.151s-0.823,0.638-1.248,0.86
		c-0.426,0.222-0.814,0.333-1.165,0.333c-0.555,0-0.893-0.162-1.013-0.485c-0.121-0.323-0.185-0.693-0.194-1.109
		s-0.056-0.809-0.139-1.179c-0.083-0.37-0.375-0.61-0.874-0.721c-0.259,0.758-0.481,1.396-0.666,1.914
		c-0.185,0.518-0.305,0.842-0.36,0.971c-0.093,0.203-0.25,0.352-0.472,0.443c-0.222,0.093-0.434,0.139-0.637,0.139
		c-0.204,0-0.37-0.045-0.5-0.139c-0.129-0.092-0.148-0.24-0.056-0.443c0.056-0.129,0.194-0.514,0.416-1.151
		c0.222-0.638,0.491-1.411,0.805-2.316c0.314-0.906,0.647-1.873,0.999-2.899c0.351-1.027,0.684-1.997,0.999-2.913
		c0.314-0.916,0.578-1.701,0.791-2.358c0.212-0.656,0.346-1.067,0.402-1.234c0.055-0.203,0.189-0.365,0.402-0.485
		c0.213-0.12,0.43-0.184,0.652-0.194c0.222-0.009,0.406,0.023,0.555,0.097C13.953,0.173,13.999,0.302,13.944,0.487z M14.221,6.422
		c-0.148-0.11-0.347-0.087-0.597,0.07c-0.25,0.157-0.532,0.402-0.846,0.735c-0.314,0.333-0.652,0.749-1.012,1.248
		c-0.361,0.5-0.717,1.045-1.068,1.637c0.462-0.018,0.929-0.199,1.4-0.541c0.472-0.342,0.888-0.73,1.249-1.166
		c0.36-0.434,0.628-0.846,0.804-1.234C14.327,6.783,14.35,6.534,14.221,6.422z"/>
</g>
</svg>
